<?xml version="1.0" encoding="UTF-8"?> <svg xmlns="http://www.w3.org/2000/svg" viewBox="0 0 100 100" width="133.333" height="133.333"><circle cx="50" cy="50" r="50" fill="#0c5f96"></circle><path d="M0 50c0 27.614 22.386 50 50 50s50-22.386 50-50" fill="#0b5586"></path><path d="M85 50h-1l.044.9q-.106 3.805-.866 7.3-2.128 8.977-9.174 15.94-4.77 4.784-10.585 7.27-6.158 2.647-13.43 2.656v.903q7.242-.012 13.43-2.56 6.184-2.546 11.264-7.625Q85 64.63 85 50.194V50z" fill="#ccc"></path><path d="M74.004 25.87q-4.79-4.79-10.585-7.28-6.137-2.646-13.43-2.655V84.06q7.272-.008 13.43-2.67 5.815-2.502 10.585-7.314 7.046-7.004 9.174-16.034.76-3.516.866-7.343V49.44q-.034-3.627-.773-7.003-2.034-9.32-9.267-16.57z" fill="#0a4b76"></path><g fill="#fff"><path d="M63.42 17.59l-.514-.217q-1.303-.505-2.663-.913-4.825-1.43-10.253-1.43-.012 0-.03 0-14.462 0-24.715 10.215-7.408 7.424-9.442 17Q15.03 45.7 15 49.433v.556q0 14.522 10.245 24.737Q35.498 84.97 49.96 84.97q.008 0 .03 0V15.934q7.293.01 13.43 2.655 5.794 2.49 10.585 7.28 7.233 7.25 9.267 16.57.74 3.376.773 7.003V50H85v-.618q-.072-3.712-.803-7.127-2.098-9.607-9.514-17-5.08-5.106-11.264-7.654h0z"></path><path d="M52.54 40.647v6.392h-2.553v3.977h2.553v6.814h4.537V40.647H52.54zm11.33 17.173V40.637h-4.556V57.82h4.556z"></path></g><path d="M47.44 47.04v-6.392h-4.556V57.83h4.556v-6.814h2.553V47.04H47.44zm-9.083-4.428Q37.2 41.6 35.57 41.118q-1.62-.48-3.574-.48H26.91V57.82h5.342q1.866 0 3.427-.5 1.57-.51 2.72-1.56 1.15-1.06 1.797-2.7.628-1.64.628-3.908 0-2.278-.638-3.89-.658-1.6-1.827-2.65v.001zm-4.89 1.875q.823.196 1.423.727.59.53.943 1.482.334.953.334 2.455 0 1.502-.334 2.484-.354.982-.943 1.542-.6.55-1.423.776-.815.216-1.738.216h-.266V44.28h.266q.923 0 1.738.206h0z" fill="#0a4b76"></path><path d="M69.353 47.037H66.08v-5.874h.683v5.255h2.59v.62zm5.474 0h-.707l-.73-1.87h-2.354l-.723 1.87h-.692l2.323-5.898h.574l2.3 5.898zm-3.55-2.483h1.9l-.683-1.82q-.133-.346-.273-.848h0q-.09.385-.253.848h0l-.69 1.82zm3.955 2.483v-5.874h1.66q1.17 0 1.69.35h0q.523.35.523 1.105h0q0 .522-.292.862h0q-.29.34-.85.44h0v.04q1.338.23 1.338 1.406h0q0 .788-.532 1.23h0q-.532.442-1.488.442h0-2.05zm.683-5.284v1.925h1.125q.723 0 1.04-.227h0q.318-.227.318-.765h0q0-.494-.354-.713h0q-.354-.22-1.125-.22h0-1.004v-.001zm1.17 2.503h-1.17v2.197h1.225q.71 0 1.07-.275h0q.36-.275.36-.862h0q0-.546-.367-.804h0q-.368-.257-1.12-.257h0v.001z" fill-rule="evenodd" fill="#fff"></path></svg> 